<?xml version="1.0" encoding="utf-8"?>
<!-- Generator: Adobe Illustrator 23.0.3, SVG Export Plug-In . SVG Version: 6.00 Build 0)  -->
<svg version="1.1" id="Layer_1" xmlns="http://www.w3.org/2000/svg" xmlns:xlink="http://www.w3.org/1999/xlink" x="0px" y="0px"
	 viewBox="0 0 1157.1 670.4" style="enable-background:new 0 0 1157.1 670.4;" xml:space="preserve">
<style type="text/css">
	.st0{fill-rule:evenodd;clip-rule:evenodd;fill:#414042;}
</style>
<polygon class="st0" points="0,333.4 69.5,333.4 69.5,358.7 48.1,358.7 48.1,401 126.4,401 126.4,358.7 104.3,358.7 104.3,333.4 
	175.1,333.4 175.1,358.7 152.4,358.7 152.4,483.2 175.1,483.2 175.1,507.9 104.3,507.9 104.3,483.2 126.4,483.2 126.4,425.7 
	48.1,425.7 48.1,483.2 69.5,483.2 69.5,507.9 0,507.9 0,483.2 22.1,483.2 22.1,358.7 0,358.7 "/>
<polygon class="st0" points="832,333.4 974.9,333.4 974.9,382.1 950.9,382.1 950.9,358.7 881.3,358.7 881.3,400.4 940.8,400.4 
	940.8,425.1 881.3,425.1 881.3,483.2 950.3,483.2 950.3,449.7 975.6,449.7 975.6,507.9 832,507.9 832,483.2 855.4,483.2 
	855.4,358.7 832,358.7 "/>
<polygon class="st0" points="207.4,333.4 350.9,333.4 350.9,382.1 326.2,382.1 326.2,358.7 256.7,358.7 256.7,400.4 316.1,400.4 
	316.1,425.1 256.7,425.1 256.7,483.2 325.6,483.2 325.6,449.7 350.9,449.7 350.9,507.9 207.4,507.9 207.4,483.2 230.8,483.2 
	230.8,358.7 207.4,358.7 "/>
<polygon class="st0" points="873.8,310 925,310 937.6,325.2 887.7,325.2 "/>
<path class="st0" d="M1115.3,408c-17.7-4.4-29.7-3.8-48-9.5c-15.8-5.7-19-15.2-19-21.5c0-7,7-24,32.2-24c25.3,0,42.4,17.1,43,31.6
	h24.7v-51.2h-24v11.4l1.3,3.2v0.6v-0.7c-0.6,0-1.3-1.9-3.8-3.8v-0.6c-7-6.3-21.5-13.9-43-13.9c-25.9,0-56.3,16.4-56.3,47.4
	c0,30.3,21.5,40.5,40.5,45.5c18.3,5.1,27.8,5.1,43.6,9.5c15.2,3.8,25.3,13.3,25.3,27.2c0,12.6-8.2,29.7-41.1,29.7
	c-32.3,0-45.5-17.7-49.3-42.4H1018v61.4h24v-11.4l-0.6-3.2c0,0,0.6,1.9,3.8,3.8v0.6c12,9.5,28.4,15.8,48.7,15.8
	c23.4,0,63.2-12,63.2-53.7C1157,429.5,1141.2,415.6,1115.3,408"/>
<polygon class="st0" points="775.8,483.2 775.8,358.7 799.2,358.7 799.2,333.4 736,333.4 693.6,435.8 692.9,440.9 691.7,435.8 
	649.9,333.4 586.1,333.4 586.1,358.7 609.5,358.7 609.5,483.2 586.1,483.2 586.1,507.9 657.5,507.9 657.5,483.2 635.4,483.2 
	635.4,368.8 635.4,361.2 637.3,366.9 686,483.2 699.9,483.2 748.6,366.9 749.9,360.6 750.5,367.5 750.5,483.2 728.3,483.2 
	728.3,507.9 799.2,507.9 799.2,483.2 "/>
<path class="st0" d="M266.2,266.4h-24v-6.3h17.7C260.5,261.3,264.3,264.5,266.2,266.4"/>
<path class="st0" d="M870,266.4c0-2.5,2.5-5.1,5.7-6.3h12.7v6.3H870z"/>
<path class="st0" d="M472.9,270.8c-10.8,5.1-24,4.4-34.8,0H312.3c-12,5.1-25.9,5.1-37.9,0h-32.2v12h646.1v-12H472.9z"/>
<path class="st0" d="M319.9,266.4c1.9-1.3,6.3-5.7,7-6.3h97.4c1.3,1.9,4.4,5.1,6.3,6.3H319.9z"/>
<path class="st0" d="M455.9,262.6c16.4,0,30.3-13.9,30.3-30.3c0-17.1-13.9-31-30.3-31c-17.1,0-31,13.9-31,31
	C424.9,248.7,438.8,262.6,455.9,262.6v6.3c-20.9,0-37.3-16.4-37.3-36.7c0-20.9,16.4-37.3,37.3-37.3c20.2,0,36.7,16.4,36.7,37.3
	c0,20.2-16.4,36.7-36.7,36.7V262.6z"/>
<path class="st0" d="M335.1,227.2c0-22.8-19-41.7-41.7-41.7c-23.4,0-41.7,19-41.7,41.7c0,23.4,18.3,41.7,41.7,41.7
	C316.1,268.9,335.1,250.6,335.1,227.2h-7c0,19.6-15.8,35.4-34.8,35.4c-19.6,0-35.4-15.8-35.4-35.4s15.8-34.8,35.4-34.8
	c19,0,34.8,15.2,34.8,34.8L335.1,227.2L335.1,227.2z"/>
<path class="st0" d="M475.4,253.1l-12.6-14.5v-0.7c0.6-0.6,0.6-1.3,1.3-1.9l19,5.1c0.6,0,1.9,0.6,1.9,1.3c0-0.6,0.6-3.2,1.3-4.4
	c-0.6,0.6-1.9,0.6-3.2,0.6l-17.7-5.1c-0.6,0-0.6-0.6-0.6-0.6v-2.5v-0.6l18.3-6.9c0,0,1.9,0,1.9,0.6c0-0.6-1.3-3.8-1.3-4.4
	c0,0.6-1.3,1.9-1.9,1.9l1.3-0.6l-19,7c0,0.6,0,0-0.6,0c0-0.6-0.6-1.3-1.3-1.3c0-0.6-0.6-1.3,0-1.3l10.1-15.8
	c0.6-0.6,1.9-1.3,2.5-1.3c-0.6,0-3.2-1.9-4.4-2.5c0.6,0,0.6,1.9,0,2.5l-10.1,15.8H459c0,0-1.3-0.6-1.9-0.6c0,0-0.6,0-0.6-0.6
	l-0.6-18.3c0-1.3,0-2.5,1.3-2.5h-5.1c0.6,0,1.3,1.9,1.3,2.5l0.6,18.3c0,0.6-0.6,0.6-0.6,0.6s-1.3,0.6-1.9,1.3c0,0-0.6,0-0.6-0.6
	l-12-14.5c-0.6-0.6-0.6-1.9-0.6-2.5c-0.6,0.6-3.2,2.5-3.8,3.2c0.6,0,1.9,0.6,2.5,1.3l12,14.5v0.6c-0.6,0-1.3,1.3-1.3,1.9
	c0,0-0.6,0.6-1.3,0.6l-17.7-5.1c-1.3-0.6-1.9-1.3-1.9-1.9c0,0.6-1.3,3.8-1.3,4.4c0,0,1.9-0.6,2.5,0l17.7,4.4c0.6,0,0.6,0.6,0.6,0.6
	v2.5v0.6l-17.7,7.6c-0.6,0-1.9,0.6-1.9,0c0,0.6,0.6,3.2,1.3,4.4c0-0.6,1.3-1.9,1.9-1.9l17.1-7.6c0.6,0,0.6,0.6,0.6,0.6
	c0.6,0,1.3,0.6,1.3,1.3c0.6,0,0.6,0.6,0.6,0.6L438.7,255c-0.6,0.6-1.3,1.3-1.9,1.3c0.6,0.6,3.2,2.5,3.8,2.5c-0.6,0,0-1.9,0-2.5
	l10.7-15.2c0-0.6,0.6-0.6,0.6-0.6c0.6,0.6,1.3,0.6,1.9,0.6s0.6,0,0.6,0.6l1.3,19c0,0.6-0.6,1.9-1.3,1.9h5.1c-1.3,0-1.3-1.3-1.3-2.5
	l-1.3-18.3c0-0.6,0.6-0.6,0.6-0.6c0.6,0,1.9-0.6,2.5-1.3c0,0,0.6,0,0.6,0.6l12.6,13.9c0,0.6,0.6,1.9,0.6,2.5
	c0.6-0.6,2.5-2.5,3.2-3.2C476.7,254.4,475.4,253.1,475.4,253.1"/>
<path class="st0" d="M292.1,203.1c17.7,0,35.4,1.9,45.5,5.1c1.3,0,1.3,1.3,0,1.9c-10.7,2.5-28.4,4.4-44.9,4.4
	c-16.4,0.6-34.2,0-45.5-2.5c-1.3,0-1.3-1.3,0-1.3C257.3,206.9,274.4,203.8,292.1,203.1v-3.2c-19,0.6-37.9,5.1-53.7,10.8
	c-1.9,0.6-1.9,1.9,0,1.9c17.7,4.4,36,5.1,54.4,4.4c17.7-0.6,36.7-1.9,53.7-6.9c2.5-0.6,1.9-1.9,0.6-1.9c-16.4-5.1-35.4-8.2-55-8.2
	V203.1z"/>
<path class="st0" d="M479.9,191.8c-4.4,1.3-12,3.8-15.8,3.8c-3.2,0-19-0.6-29.7,0c-14.5,0.6-15.8,2.5-16.4,1.3
	c-3.2-5.1-5.7-12.7-10.7-17.1c-29.7,5.1-58.8,0.6-85.4-8.9v-3.8c1.9,0.6,3.2,0.6,4.4,0.6c-4.4-6.3-12-8.2-16.4-15.2
	c-2.5-1.9-3.2-5.7-5.7-7.6c0.6,6.9-5.1,12-5.7,17.7c3.8,1.3,8.9,1.3,10.8,0.6c2.5-0.6,5.7,0,6.9,1.9c1.9,0.6,3.2,1.9,5.7,1.9v3.9
	c-3.2-0.6-3.8-1.3-6.3-2.5c-3.2,1.3-5.7,0.6-6.9-0.6c-0.6-0.6-7-0.6-9.5-0.6c-8.2,0-17.1,3.2-21.5,10.1c-1.9,3.8-1.3,8.2,0.6,11.4
	c1.3,1.9,7,10.1,10.7,12.6l-5.1,1.3c-7.6-7-13.3-13.3-12-21.5c3.8-17.7,20.2-15.2,24.7-22.8c3.2-6.9,4.4-27.2,0.6-32.9
	c-10.7-4.4-24-10.1-26.5-22.8c-0.6-3.2,0.6-6.9,3.8-7.6c5.7-1.3,9.5,1.9,13.9,3.8c1.9-1.3-1.9-5.7,2.5-5.7c5.7,0,9.5,11.4,11.4,12
	l-0.6,4.4c-3.8-1.3-17.7-8.9-19-9.5c-2.5-1.3-5.7-3.2-7.6-0.6c-2.5,3.2,0.6,7,2.5,10.1c29.7,31,79-1.9,111.3,20.2
	c0.6-1.9,0-2.5-1.3-3.2c-22.1-20.9-57.5-10.1-86-17.1l0.6-4.4c35.4,8.9,82.2-5.7,100.5,34.8c12,17.1,24.7,44.3,50.6,44.9
	c20.9,0.6,34.8-7.6,44.9-22.8c13.9-25.3,22.1-54.4,46.8-71.4c2.5-1.3,3.8,0,2.5,0.6c-12,12-22.8,27.8-28.4,41.1
	c9.5,36,30.3,28.5,35.4,27.8c-1.3-13.3,0-52.5,28.4-62c6.3-5.1,29.1-19.6,58.8-7c-22.1,20.9-35.4,50.6-39.8,71.4l-24.7,7
	c1.9-3.8,1.9-10.1,1.3-17.1c-2.5,1.3-5.1,3.2-10.8,6.3c-2.5,0.6-0.6-3.2-0.6-3.2c0-1.3,6.3-3.8,11.4-7c-1.9-14.5-3.2-33.5,8.9-45.5
	c-24.7,8.2-17.7,60.1-15.2,66.4c-6.9,3.2-16.4,3.2-16.4,3.2l-1.3-8.9c-10.8,3.8-29.1,1.3-37.3-27.2
	C508.3,155.1,500.7,184.2,479.9,191.8"/>
<path class="st0" d="M865.5,114.6c-1.3-1.3-1.9-1.9-3.2-1.9c-0.6-0.6,0-1.3,0.6-1.3c0.6-0.6,1.9,0,2.5,1.3
	C866.2,113.4,866.2,114.6,865.5,114.6"/>
<path class="st0" d="M299.7,236.7l13.3,15.2c1.3,1.3,1.3,3.2,0.6,3.8c1.9-0.6,4.4-3.8,5.7-5.1c-0.6,0.6-3.2,0.6-3.8-0.6l-13.9-15.2
	v-1.3l0.6-0.6c0-0.6,0.6-0.6,0.6-0.6l19.6,6.9c1.9,1.3,2.5,2.5,2.5,3.2c0.6-1.3,1.9-5.1,2.5-6.3c-0.6,0.6-2.5,1.3-3.8,0.6l-19.6-7
	c-0.6,0-0.6,0-0.6-0.6v-1.3c0-0.6,0.6-0.6,0.6-0.6l20.2-3.2c2.5-0.6,3.8,0.6,3.8,1.3c0-1.3-0.6-5.7-0.6-6.9c0,0.6-1.3,2.5-3.8,3.2
	l-19.6,3.2c-0.6,0-0.6-0.6-0.6-0.6c-0.6-0.6-0.6-1.3-1.3-1.9v-0.6l15.8-13.3c1.9-1.3,3.8-1.3,4.4-0.6c-1.3-1.3-3.8-4.4-5.1-5.7
	c0.6,0.6,0,2.5-1.3,4.4l-15.2,12.6c-0.6,0.6-0.6,0.6-0.6,0c-0.6,0-1.3,0-1.9-0.6c0,0-0.6-0.6,0-0.6l7-19.6c0.6-1.9,2.5-2.5,3.2-2.5
	c-1.3-0.6-5.7-2.5-6.9-2.5c0.6,0,1.9,2.5,1.3,4.4l-6.9,19c0,0.6-0.6,0.6-0.6,0.6h-1.9l-0.6-0.6l-3.8-20.2c0-2.5,1.3-3.8,1.3-3.8
	c-1.3,0-5.1,0.6-6.9,1.3c0.6,0,2.5,1.3,3.2,3.2l3.8,19.6c0,0.6,0,0.6-0.6,1.3c-0.6,0-1.3,0.6-1.9,0.6h-0.6l-13.9-15.2
	c-1.3-1.9-1.3-3.8-0.6-3.8c-1.3,0.6-4.4,3.2-5.1,4.4c0.6,0,2.5,0,3.8,1.3l13.9,15.2v0.6c-0.6,0.6-0.6,0.6-1.3,1.3h-0.6l-19-7
	c-1.9-0.6-3.2-2.5-2.5-3.2c-1.3,1.9-1.9,5.7-2.5,6.9c0.6-0.6,2.5-1.3,4.4-0.6l19,6.3v0.6v1.9v0.6l-20.2,3.8c-1.9,0-3.8-1.3-3.8-1.9
	c0,1.9,0.6,6.3,1.3,7.6c0-0.6,0.6-2.5,3.2-3.2l19.6-3.8c0,0,0.6,0,0.6,0.6s0,0.6,0.6,1.3v0.6l-15.8,12.7c-1.9,1.9-3.8,1.3-3.8,0.6
	c0,1.9,3.2,5.1,3.8,5.7c0-0.6,0-2.5,1.3-3.8l16.4-12.7c0-0.6,0-0.6,0.6,0l1.3,1.3c0.6,0,0.6,0,0.6,0.6l-6.9,19
	c-0.6,1.9-2.5,3.2-3.2,2.5c1.2,0.6,5.1,2.5,6.9,2.5c-1.3,0-1.9-1.9-1.3-3.8l7-19.6c0,0,0-0.6,0.6-0.6c0.6,0.6,1.3,0.6,1.9,0.6
	c0,0,0.6,0,0.6,0.6l3.8,19.6c0,2.5-1.3,3.8-1.9,4.4c1.9,0,5.7-1.3,6.9-1.9c-0.6,0.6-2.5-1.3-2.5-2.5l-3.8-20.2v-0.6
	c0.6,0,1.3-0.6,1.9-0.6C299.1,236,299.1,236,299.7,236.7"/>
<path class="st0" d="M856.7,117.2c-0.6-0.6,0-1.3,0-1.9c0.6-1.9,1.3-1.9,1.3-3.8c-3.2-2.5-3.8-7.6-1.9-8.8c1.9-1.9,8.2,0.6,8.2,0.6
	c5.7-4.4,7.6-7.6,10.8-9.5c4.4,0,13.3,8.2,13.3,13.3c-1.3,1.9-4.4,5.1-9.5,11.4c1.9,4.4,1.9,7.6-1.3,10.1c-0.6,0-1.9,0-3.2-1.3
	c0.6,6.3,7.6,10.1,10.1,15.2c0,10.1,10.8,22.8-1.3,31c-2.5,1.3-5.1,3.2-6.3,5.7c1.9,10.1,5.7,20.9,7.6,31.6l-12,0.6
	c-1.3,3.8-5.1,10.7-3.8,14.5c0,0-0.6-0.6,0.6,0c1.9,2.5,2.5,23.4,1.9,25.3c0,2.5,1.9,2.5,0.6,6.9c-1.3,0.6-6.3,3.8-7,5.7
	c-3.2,3.2-12,3.8-12,2.5c0-3.2,6.3-6.9,7.6-10.7c1.3-15.2,0-30.3-8.2-42.4c-3.2-1.9-5.7,3.2-7.6,5.7c3.2,9.5,8.9,19.6,8.2,30.3
	c0,3.2,3.8,7.6,1.9,12l-10.1,5.1h-36.7c-1.3-1.9-3.8-3.8-3.2-6.3h32.9c0-1.3,3.2-0.6,6.3-5.7c0-15.2-15.8-37.3-13.3-44.9
	c3.2-9.5,7.6-17.1,12.6-29.7l2.5-0.6c-5.7,19-13.9,28.5-12.6,34.1c0.6,3.2,1.9,5.7,3.8,9.5l1.3,3.8c0.6,1.9,2.5,6.3,3.8,7.6
	c1.9,0,3.2-1.3,4.4-1.9c0-2.5-1.9-5.7-3.2-7.6l-5.1,1.9l-1.3-3.8c3.8,0,6.3-2.5,3.2-4.4c8.8-4.4-1.9-3.2,1.3-5.1
	c5.1-2.5,7.6-12,8.2-17.7c0-1.3,0.6-1.9,1.9-1.9c3.8,10.1,3.8,23.4,10.1,32.9v3.2c-0.6,2.5,0,5.7,1.3,7.6c5.7,0.6,5.1-0.6,3.8-7.6
	c-1.3,0-3.8-0.6-5.1,0v-3.2c0.6-0.6,3.2,0,3.8-0.6c-1.9-3.2-1.9-5.7-1.9-8.8c0-1.9,1.3-5.7,2.5,2.5c1.9,0.6,5.1-14.5,5.7-19.6
	c-12,2.5,0-11.4-8.9-12l4.4-7.6c0-2.5-1.9-4.4-5.1-3.2l-2.5-3.2c-1.9-0.6-3.8-3.8-6.3-5.7c-1.9,1.9-5.1,5.7-5.7,8.2
	c-0.6,0.6,1.3,1.3,1.9,0.6c1.9-1.9,3.2,1.9,6.3,1.3c1.3-1.3,5.1-1.9,3.8-4.4l2.5,3.2c-2.5,1.3-2.5,5.7-2.5,8.9
	c-4.4,8.2-2.5-4.4-7.6-4.4c-3.2,1.9-4.4-3.2-6.3-2.5l-2.5,0.6c0-4.4,0.6-9.5,0-14.6c3.8-21.5,8.2-20.9,8.9-27.2
	c0-2.5,9.5-7.6,8.8-10.1c0.6,0,1.9,1.9,1.9,2.5c-0.6,3.2-7,3.2-6.3,10.1c3.8-6.9,14.5-6.3,15.2-14.5c-1.9-5.1,2.5-1.9,2.5-6.9
	c-1.3-1.3-5.1-5.1-5.7-7c-0.6-0.6,1.9-4.4-6.9-4.4c-0.6,0.6-1.3,4.4-2.5,6.3c-0.6,0.6-1.9,1.9-1.3,2.5c0,0.6,1.3,1.3,1.3,3.8
	c-0.6,2.5,0,3.8,1.3,5.1c5.1,2.5,8.8,0,3.2,3.2c0,0.6,0,1.3-0.6,1.9c0-0.6-1.9-3.2-2.5-3.8c-0.6,0-3.8-1.9-3.2-4.4
	C858,119.7,858,118.4,856.7,117.2"/>
<path class="st0" d="M686.6,93.1c0.6,4.4-1.9,7.6-1.9,12c4.4,10.8,0,19,1.3,29.1c-5.1-3.2-6.3-11.4-8.2-20.2
	c-1.3-7.6,0.6-10.1,1.3-18.3L686.6,93.1z"/>
<path class="st0" d="M673.3,96.3c-0.6,13.3-2.5,19.6,7,40.5c-24,10.1-43.6,17.1-72.1,25.3c3.2-20.2,22.8-58.8,39.2-69.5
	C661.3,96.3,673.3,96.3,673.3,96.3"/>
<path class="st0" d="M611.4,244.9c-6.3,1.9-6.3,5.7-2.5,9.5c2.5,1.9,5,5.1,5,5.7h-40.5c0,1.9,1.9,3.2,3.2,6.3h223.8
	c1.3-3.2-2.5-7-3.8-10.8c-15.8-5.7-15.8-20.2-16.4-36.7c0-0.6-1.3-2.5-1.3-5.7c-1.9-2.5-12.6-28.5-7.6-49.3l3.8-7
	c3.2-4.4-0.6-6.9,1.9-12l46.8-8.8c0.6-0.6,0.6-2.5-0.6-3.2c0-0.6,0.6,0,0,0l-45.5,8.2c2.5-11.4-7.6-15.2-3.2-24.7
	c6.3,7,23.4,19,32.2,20.9l4.4-0.6c-11.4-5.1-31.6-17.1-43-32.9c-1.3,0-2.5-1.3-3.8-1.9c0,1.3,3.2,5.1,2.5,5.7c0,0-7.6,5.1-21.5-1.3
	c-4.4,8.8-53.7,31-53.7,31c1.9,13.9,8.2,22.8,15.2,30.3c0.6,1.3-1.9-1.3,0,0c10.1,8.2,22.1,12,35.4,14.5c2.5,7.6,12,32.3,12.6,36
	c1.3,3.8,3.2,3.8,3.2,3.8c1.3,1.3,5.7,9.5,5.7,12.7l1.3,13.3c0.6,3.2,4.4,0.6,5.1,3.8l-1.9,8.2h9.5c-5.1-4.4-1.9-12-8.2-15.2
	c-0.6-7.6-1.3-13.3-4.4-16.4c-2.5-7.6-10.8-27.8-15.8-46.2l3.2-4.4c-13.9,3.8-24.7-1.3-37.3-8.2c-9.5-4.4-3.8-0.6-0.6-2.5
	c15.2,6.9,22.8,5.1,34.2,3.8c1.3,1.9,3.8,3.8,3.8,7l-3.2,4.4c3.2-3.2,5.7-1.3,7.6,7.6c2.5,7.6,5.1,13.3,6.9,19.6
	c2.5,6.3,4.4,14.5,6.3,19c0,0,1.9,0,3.2,2.5c4.4,13.9,5.7,15.8,5.1,22.1c1.3,5.1,8.2,0.6,7.6,7H619.8c2.5-10.1-3.2-19,0-28.5
	c-6.3-10.1-22.1-17.7-19.6-31.6c7.6-10.7,32.3-21.5,26.6-34.1c22.8-11.4,34.1,7.6,55,5.7c7.6,0,15.8-1.3,22.8-3.2
	c-8.9-7-16.4-17.7-20.9-27.2c-44.3,18.3-87.3,32.9-134.7,42.4l-3.8-1.3c-4.4,0.6-76.5,17.1-74,20.2c-27.2,1.9-58.8,13.3-65.8,17.1
	c-3.2,1.9-3.8,3.2,0,4.4c29.1,7.6,53.1,1.9,98-15.2l-3.2-2.5c-2.6,1.9-39.2,14.5-53.8,16.4c-15.2,1.9-28.4,1.3-34.8-0.6
	c-1.9-0.6-1.9-0.6-0.6-1.3c28.5-11.4,83.5-21.5,91-12c4.4,1.3,7.6,3.8,10.1,6.9c2.5,3.2,7.6,1.9,11.4,1.3c5.1-1.3,5.7-5.7,5.7-10.1
	l-5.7-0.6c-2.5,0-12.7,1.3-13.9,2.5c-3.8-3.2-7.6-6.3-12.7-7.6c10.1-4.4,26.6-8.2,35.4-8.9c-8.2,5.7-4.4,12.7-8.8,13.9l5.7,0.6
	c0-2.5,0-4.4,1.2-5.7c5.7-13.9,29.7-15.8,41.7-19c0,0-6.3,8.2-10.7,10.1c-1.3,19.6-8.2,36.7-9.5,56.3c5.7,0,5.7,6.3,6.9,10.1
	c-1.9,3.2-4.4,0-6.9,0.6c-8.8-4.4,1.9-12-5.1-18.3c3.8-15.8,9.5-31.6,9.5-48c-2.5,0-3.2,2.5-4.4,4.4c-1.9,15.8-6.3,30.3-10.1,44.9
	c1.3,1.3,4.4,2.5,4.4,5.1c-5.1,3.2,0,8.9-1.9,12.7h-57.5l-5.7,6.3h87.2l0.6-3.2c-12.6-13.9-8.2-34.1-1.9-49.3l15.2-20.2
	c12.7-5.1,20.2-20.2,33.5-25.3c0,7-8.2,9.5-12.6,13.3c-5.1,10.7-19.6,12-21.5,24c5.7,6.3,13.9,10.8,20.9,16.4
	c6.9,4.4,5.1,13.9,10.1,18.3C613.9,241.7,612.6,244.2,611.4,244.9"/>
<path class="st0" d="M708.1,16.6c-2.5,3.8-7.6,6.3-4.4,13.3c-6.3,3.8-4.4,9.5-2.5,12.6c-3.2,3.2-5.1,9.5-0.6,13.3
	c-5.1,5.7,1.3,10.7,3.2,12.6c-2.5,5.7,0,10.1,0,10.1c-0.6,3.8-7.6,10.1-10.1,12c-3.8,9.5-2.5,29.1-1.9,42.4
	c17.6-8.8,35.3-17,49.2-29c-12-8.2-21.5-27.8-34.8-26.6c-1.3-13.9-6.9-38.6,12.7-63.9c2.5-1.3,6.3-1.9,8.2-3.2
	c-8.2-1.3-19,3.8-26.5-0.6C700.5,9.7,704.3,16,708.1,16.6"/>
<path class="st0" d="M750.5,10.3c0,0.6,2.5,1.9,2.5,1.9s2.5-0.6,2.5-1.3c0-0.6,0.6-2.5,0-3.2c-0.6,0-2.5-0.6-3.8-0.6
	C751.7,7.2,750.5,9.7,750.5,10.3l-1.3,1.3l-8.8-6.3l1.3-1.3c0,0,3.8-3.8,5.7-3.8c1.9-0.6,12,0,14.5,1.9c1.9,1.9,3.2,3.2,5.7,7.6
	c7,5.1,18.3,5.1,25.3,10.7c-1.3,1.9,1.9,5.1-0.6,6.3c-1.9,0.6-6.3-0.6-6.9,0.6l-0.6,3.8l-2.5-0.6c0,0,1.3-4.4,0-4.4
	c-1.3-0.6-3.8-1.9-5.1-1.3c-0.6,0.6,0,1.3,0.6,2.5c0,1.3,3.2,1.9,5.1,1.3l2.5,0.6l3.2,0.6c-1.3,3.2-1.9,4.4-6.3,3.2
	c-1.3,3.2,5.7,5.7,6.3,6.9c-0.6,1.3-1.9,2.5-6.3,0c0,0-18.3,17.7-29.1,22.8c-11.4,5.1-0.6-2.5-0.6-2.5c5.1-1.9,27.2-20.9,27.2-22.8
	c-0.6-1.3-1.9-3.8-1.9-5.7c-3.2-1.3-9.5,0.6-12,2.5c1.2,5.7,11.4,34.2,3.8,77.1l-1.3-1.3c7-41.7-4.4-75.2-4.4-75.2
	c-6.3,2.5-10.8,0.6-13.9,1.3c-1.3,25.9,19.6,29.7,12,63.9c-22.1-3.8-37.9-31-50.6-28.5c-0.6-4.4-5.1-12-0.6-14.5
	c-1.3-3.8-2.5-8.9,3.2-12c-1.9-5.1-2.5-9.5,3.2-13.3c-1.3-3.2-0.6-10.1,6.3-11.4c0.6-5.7,3.2-10.1,8.2-12c-5.7-2.5-7-8.2-7-8.2
	c5.1,3.2,9.5,5.1,17.1,3.8L750.5,10.3z"/>
<path class="st0" d="M535.5,483.2l-0.6-35.4c0-10.8-7-22.1-16.4-28.4c-1.9-0.6-5.1-1.9-7.6-1.9c2.5,0,5.7,0,8.9-1.3
	c9.5-4.4,20.9-16.4,20.9-37.3c0-15.8-6.3-27.8-17.7-36c-10.8-7.6-22.8-9.5-35.4-9.5h-97.4v25.3h22.1v124.6h-22.1v24.6h69.5v-24.7
	h-22.1v-55h48c16.4,0.6,22.8,11.4,22.8,20.2l1.9,59.4h47.4v-24.7h-22.2V483.2z M490.6,404.2h-53.1v-45.5h50c5.7,0,12,0,17.1,1.9
	c6.3,3.2,12,10.1,12,20.9C516.5,394.7,504.5,404.2,490.6,404.2"/>
<path class="st0" d="M381.2,569.8c22.8,0,32.9,12.6,32.9,28.4S403.3,626,379.3,626h-16.4v43.6h-14.5v-99.9h32.8V569.8z M362.9,613.5
	h17.7c10.8,0,18.3-5.7,18.3-15.8c0-7.6-4.4-15.2-17.7-15.2h-18.3V613.5z"/>
<path class="st0" d="M527.3,669.7h-15.8L498.9,640h-43.6l-12,29.7h-15.9l44.3-100.5h10.1L527.3,669.7z M460.9,626.7h32.3l-17.1-39.2
	L460.9,626.7z"/>
<rect x="679" y="569.8" class="st0" width="14.5" height="99.9"/>
<path class="st0" d="M797.9,591.3c-9.5-7.6-18.3-10.1-25.9-10.1c-9.5,0-17.1,4.4-17.1,11.4c0,19.6,46.8,19,46.8,51.2
	c0,15.2-12.6,26.6-30.3,26.6c-11.4,0-21.5-2.5-30.4-8.9v-18.3c8.2,9.5,18.3,14.6,29.1,14.6c12,0,17.7-7,17.7-12.7
	c0-20.2-47.4-22.8-47.4-49.9c0-16.4,13.3-26.6,32.9-26.6c8.8,0,16.4,1.9,24.7,7L797.9,591.3L797.9,591.3z"/>
<path class="st0" d="M632.2,657.7c-1.9-2.5-3.8-5.1-5.7-8.2c-7.6-12.7-13.9-21.5-23.4-27.2c11.4-4.4,17.7-13.3,17.7-24.7
	c0-17.1-13.3-27.8-34.8-27.8h-25.9v99.9h15.2v-43.6h6.3c7.6,0,13.9,2.5,27.2,22.8l13.9,20.9h17.1L632.2,657.7z M584.8,613.5h-9.5
	v-31.6h9.5c14.5,0,20.2,5.7,20.2,15.2C605.7,605.3,601.3,613.5,584.8,613.5"/>
</svg>
